<?xml version="1.0" encoding="utf-8"?>
<!-- Generator: Adobe Illustrator 16.0.4, SVG Export Plug-In . SVG Version: 6.00 Build 0)  -->
<!DOCTYPE svg PUBLIC "-//W3C//DTD SVG 1.1//EN" "http://www.w3.org/Graphics/SVG/1.1/DTD/svg11.dtd">
<svg version="1.1" id="Layer_1" xmlns="http://www.w3.org/2000/svg" xmlns:xlink="http://www.w3.org/1999/xlink" x="0px" y="0px"
	 width="71.915px" height="71.017px" viewBox="0 0 71.915 71.017" enable-background="new 0 0 71.915 71.017" xml:space="preserve">
<circle fill="#969696" cx="36.407" cy="35.508" r="35.508"/>
<g>
	<path fill="#FFFFFF" d="M21.424,12.932l0.152-0.38c0.76-0.962,2.457-1.963,5.092-3.002c2.634-1.038,5.598-1.558,8.892-1.558
		c4.914,0,8.803,0.874,11.666,2.622c2.862,1.748,4.294,4.852,4.294,9.31c0,3.598-1.039,6.435-3.116,8.512l-0.912,0.76
		c-0.659,0.507-1.09,0.849-1.292,1.026c-0.203,0.178-0.621,0.558-1.254,1.14c-0.634,0.583-1.102,1.09-1.406,1.52
		c-0.304,0.431-0.722,1.001-1.254,1.71c-0.532,0.71-0.938,1.394-1.216,2.052c-0.279,0.659-0.583,1.419-0.912,2.28
		c-0.33,0.862-0.558,1.774-0.684,2.736c-0.127,0.963-0.19,1.976-0.19,3.04v1.9c0,0.862-0.114,1.444-0.342,1.748
		c-0.228,0.304-0.672,0.456-1.33,0.456h-3.496c-1.52-0.05-2.356-0.177-2.508-0.38c-0.203-0.253-0.304-0.912-0.304-1.976v-1.52
		c0-6.536,2.457-12.742,7.372-18.62c0.101-0.101,0.291-0.316,0.57-0.646c0.278-0.329,0.456-0.532,0.532-0.608
		c0.076-0.076,0.215-0.266,0.418-0.57c0.202-0.304,0.329-0.532,0.38-0.684c0.05-0.152,0.126-0.38,0.228-0.684
		c0.101-0.304,0.177-0.608,0.228-0.912c0.05-0.304,0.088-0.658,0.114-1.064c0.025-0.405,0.038-0.861,0.038-1.368
		c0-2.33-0.368-3.952-1.102-4.864c-0.735-0.912-2.268-1.368-4.598-1.368c-1.723,0-3.306,0.292-4.75,0.874
		c-1.444,0.583-2.534,1.229-3.268,1.938c-0.735,0.71-1.395,1.356-1.976,1.938c-0.583,0.583-1.001,0.874-1.254,0.874
		c-0.507,0-1.102-0.95-1.786-2.85C21.766,14.414,21.424,13.287,21.424,12.932z M29.936,60.204c0-0.101,0.013-0.228,0.039-0.38
		c0.026-0.152,0.04-0.278,0.04-0.38v-2.128c0-0.709,0.039-1.266,0.117-1.672c0.079-0.405,0.404-0.823,0.979-1.254
		c0.574-0.43,1.409-0.646,2.506-0.646h3.445c2.14,0,3.211,1.166,3.211,3.496v2.888c0,0.456-0.026,0.836-0.078,1.14
		c-0.052,0.304-0.183,0.672-0.392,1.102c-0.209,0.431-0.573,0.76-1.096,0.988c-0.522,0.228-1.227,0.342-2.114,0.342h-2.897
		c-0.731,0-1.331-0.063-1.801-0.19c-0.47-0.126-0.913-0.456-1.331-0.988C30.144,61.99,29.936,61.218,29.936,60.204z"/>
</g>
<g>
</g>
<g>
</g>
<g>
</g>
<g>
</g>
<g>
</g>
<g>
</g>
</svg>
