<svg xmlns="http://www.w3.org/2000/svg" viewBox="0 0 789.82 789.82"><defs><style>.cls-1{fill:#04497c;}.cls-2{fill:#fff;}</style></defs><g id="Layer_2" data-name="Layer 2"><g id="Layer_1-2" data-name="Layer 1"><rect class="cls-1" width="789.82" height="789.82" rx="394.91"/><path class="cls-2" d="M284.62,183.37h0A79.34,79.34,0,0,1,364,262.71V610.46a0,0,0,0,1,0,0h0A158.69,158.69,0,0,1,205.27,451.77V262.71a79.34,79.34,0,0,1,79.34-79.34Z"/><rect class="cls-2" x="425.86" y="183.37" width="158.69" height="158.69" rx="79.34"/><path class="cls-2" d="M505.21,371.1h0a79.34,79.34,0,0,1,79.34,79.34v1.32A158.69,158.69,0,0,1,425.86,610.46h0a0,0,0,0,1,0,0v-160A79.34,79.34,0,0,1,505.21,371.1Z"/></g></g></svg>