<svg id="Layer_1" data-name="Layer 1" xmlns="http://www.w3.org/2000/svg" viewBox="0 0 220 100"><defs><style>.cls-1{fill:#04497c;}.cls-2{fill:#c01;}</style></defs><path class="cls-1" d="M18.39,8.61h0A7.42,7.42,0,0,1,25.81,16V47.26a1.28,1.28,0,0,1-1.28,1.28h0A13.55,13.55,0,0,1,11,35V16a7.42,7.42,0,0,1,7.42-7.42Z"/><rect class="cls-1" x="31.59" y="8.61" width="14.84" height="14.84" rx="7.42"/><path class="cls-1" d="M39,26.16h0a7.42,7.42,0,0,1,7.42,7.42V35A13.55,13.55,0,0,1,32.88,48.54h0a1.28,1.28,0,0,1-1.28-1.28V33.58A7.42,7.42,0,0,1,39,26.16Z"/><path class="cls-1" d="M69.12,18.38c0,4.13-2.57,6.9-6.41,6.9s-6.48-2.77-6.48-6.9V10h2.11v8.42c0,2.95,1.74,4.86,4.37,4.86S67,21.33,67,18.38V10h2.14Z"/><path class="cls-1" d="M83.51,25,77.12,18.2H74.3V25H72.18V10H77.7c3,0,4.82,1.68,4.82,4.11a3.92,3.92,0,0,1-3,3.88l6.62,7ZM77.7,16.27c1.7,0,2.71-.91,2.71-2.2s-1-2.19-2.71-2.19H74.3v4.39Z"/><path class="cls-1" d="M99.72,20.5c0,2.69-2,4.48-5.26,4.48H87.54V10h6.59c2.64,0,4.36,1.48,4.36,3.78a3.18,3.18,0,0,1-1.36,2.78A4.12,4.12,0,0,1,99.72,20.5ZM89.66,15.91h4.56a2,2,0,0,0,2.2-2c0-1.24-.87-2-2.29-2H89.66Zm4.8,7.14c2,0,3.2-1.05,3.2-2.67s-1.24-2.75-3.3-2.75h-4.7v5.42Z"/><path class="cls-1" d="M114,25l-1.48-3.26h-8L103,25h-2.37l7-15h1.68l7,15Zm-5.47-12.11-3.15,6.92h6.27Z"/><path class="cls-1" d="M131.72,25h-1.5l-10.1-11.16,0,11.16H118V10h1.5l10.12,11.33V10h2.11Z"/><path class="cls-1" d="M56.37,46.9v-15h2.11v15Z"/><path class="cls-1" d="M75.35,46.9H73.84L63.74,35.73l0,11.17H61.61v-15h1.5L73.23,43.2V31.87h2.12Z"/><path class="cls-1" d="M84.32,33.79V46.9H82.19V33.79H77.36V31.87h11.8v1.92Z"/><path class="cls-1" d="M101.68,46.9H91.16v-15h10.46v1.94H93.28V38.2h7.84v1.9H93.28V45h8.4Z"/><path class="cls-1" d="M114.45,46.9H104.37v-15h2.11V45h8Z"/><path class="cls-1" d="M126.84,46.9H116.76v-15h2.12V45h8Z"/><path class="cls-1" d="M129.16,46.9v-15h2.11v15Z"/><path class="cls-1" d="M149,38.51c0,.36,0,.68,0,.91,0,4.37-3.06,7.77-7.47,7.77a7.8,7.8,0,0,1-.08-15.59,7.28,7.28,0,0,1,7.16,4.84l-1.92.67a5.46,5.46,0,0,0-5.24-3.52,5.81,5.81,0,0,0,.14,11.61A5.28,5.28,0,0,0,147,40.43h-6.92V38.51Z"/><path class="cls-1" d="M162.05,46.9H151.53v-15H162v1.94h-8.34V38.2h7.85v1.9h-7.85V45h8.4Z"/><path class="cls-1" d="M178.48,46.9H177L166.87,35.73l0,11.17h-2.11v-15h1.5L176.36,43.2V31.87h2.12Z"/><path class="cls-1" d="M193.92,41l2.05.43a7.16,7.16,0,0,1-7.27,5.79,7.8,7.8,0,0,1,0-15.59A7.23,7.23,0,0,1,196,37.25l-2.05.57a5.19,5.19,0,0,0-5.22-4.23,5.81,5.81,0,0,0,0,11.61A5.18,5.18,0,0,0,193.92,41Z"/><path class="cls-1" d="M209,46.9H198.48v-15h10.46v1.94H200.6V38.2h7.85v1.9H200.6V45H209Z"/><path class="cls-2" d="M100.78,66.12l0,3.59a5.25,5.25,0,0,1-.52,3,4.06,4.06,0,0,1-3.81,2c-2.18,0-3.85-1.13-4.28-2.92A7.1,7.1,0,0,1,92,69.9V66.18c0-1.2-.12-1.38-1.07-1.56a.51.51,0,0,1-.17,0v-.35H91c.43,0,.87.05,1.3,0h1.41l.85,0,.36,0v.35c-1,.11-1.18.35-1.18,1.5v4.18a4.35,4.35,0,0,0,.44,2.39,3,3,0,0,0,2.75,1.5,3.1,3.1,0,0,0,3.18-2.64,5.49,5.49,0,0,0,.06-1v-.39l-.1-3.9c0-1.31-.17-1.5-1.16-1.61h-.18v-.36l.16,0,.66,0c.2,0,.41,0,.64,0l1,0h.61l.23,0v.37C101.08,64.64,100.8,65,100.78,66.12Z"/><path class="cls-2" d="M114.83,64.68h-.11c-.9,0-1.16.35-1.16,1.38v8.63h-.36L105.26,66v6.38c0,1.33.26,1.65,1.36,1.7v.38h-3.23v-.37c1.05-.07,1.27-.4,1.27-1.68V65.75c0-.75-.32-1-1.13-1.09h-.11v-.38h2.69l6.8,7.53V66.1c0-1.12-.2-1.34-1.27-1.42v-.41h.25c.42,0,1.08,0,1.43,0h1.53Z"/><path class="cls-2" d="M119.91,64.62c-.94,0-1.15.29-1.15,1.37v6.75c0,1.08.21,1.34,1.15,1.36v.35l-2,0-2,0V74.1c.92,0,1.15-.26,1.15-1.36V66c0-1.08-.23-1.35-1.15-1.37v-.35h4Z"/><path class="cls-2" d="M132.35,64.59a1.72,1.72,0,0,0-1.72,1.16l-.21.55L127,74.63h-.32l-3.92-8.38c-.6-1.29-.82-1.51-1.71-1.65v-.35h1.21c.21,0,.9,0,1.42,0h.79l.87,0h.33v.35c-.81,0-1.25.26-1.25.76a1.7,1.7,0,0,0,.17.66l2.86,6.36L129.76,66a2.88,2.88,0,0,0,.17-.76c0-.43-.27-.61-1-.65v-.35h.23c.09,0,.31,0,.63,0h1.57l.68,0h.26Z"/><path class="cls-2" d="M140.16,64.38l.07.71c0,.39.08.77.15,1.32l0,.24-.49,0a2.33,2.33,0,0,0-.52-1.24c-.48-.53-.86-.65-2.31-.65H136v4.13h1c1.37,0,1.64-.18,1.7-1.22l0-.2h.5v.16l0,.67c0,.2,0,.47,0,.83s0,.56,0,.73l0,.75v.26h-.5c0-1.16-.29-1.39-1.78-1.39h-1v3.11c0,1.06.25,1.26,1.42,1.26,2.1,0,2.77-.46,3.12-2.14l.49.09c-.08.61-.15,1.44-.2,2.29l0,.31c-.65,0-1.57,0-2.71,0l-2.62,0h-1.28a10.31,10.31,0,0,0-1.06,0v-.35c.92,0,1.15-.27,1.15-1.36V66c0-1.09-.23-1.35-1.15-1.37v-.37l.33,0h1.92l1.34,0,1.56,0h1.39l.48,0Z"/><path class="cls-2" d="M142.7,64.25c.43,0,.86,0,1.31,0,.63,0,1.27,0,2,0l1.19,0c1.84,0,3.06,1,3.06,2.63a2.57,2.57,0,0,1-1.3,2.26,4.47,4.47,0,0,1-.79.31,2.32,2.32,0,0,1,.53.71l.82,1.56c.9,1.69,1.05,1.9,1.45,2.19a1.19,1.19,0,0,0,.53.23,1.91,1.91,0,0,0,.47,0v.36a6.37,6.37,0,0,1-1,.07,3.05,3.05,0,0,1-2.29-.87A11.52,11.52,0,0,1,147,70.76c-.41-.85-.73-1.08-1.53-1.08h-.09v2.75c0,1.35.17,1.54,1.33,1.61v.42h-4.2V74.1c.94,0,1.15-.26,1.15-1.36V66c0-1.1-.21-1.36-1.15-1.38v-.36Zm2.64,4.93h.45a4.36,4.36,0,0,0,1.56-.21,1.8,1.8,0,0,0,1-1.76,2.61,2.61,0,0,0-1-2.14,2.35,2.35,0,0,0-1.58-.4h-.43Z"/><path class="cls-2" d="M159.52,66.91H159a3.14,3.14,0,0,0-.45-1.25,2.56,2.56,0,0,0-2.12-1.12,1.68,1.68,0,0,0-1.78,1.56c0,.55.31,1,1,1.42l1.52.88c1.4.78,2,1.23,2.32,1.89a2.62,2.62,0,0,1,.29,1.31c0,1.84-1.36,3.06-3.38,3.06a16.49,16.49,0,0,1-3.13-.35l-.13-2.57.5,0,0,.11a2.68,2.68,0,0,0,1.16,1.79,2.86,2.86,0,0,0,1.69.56,1.76,1.76,0,0,0,1.83-1.71v0a1.48,1.48,0,0,0-.23-.79c-.32-.47-.64-.67-2.49-1.62-1.69-.85-2.48-1.79-2.48-2.93a3.09,3.09,0,0,1,1.87-2.74,4.53,4.53,0,0,1,1.67-.26,16.5,16.5,0,0,1,2.43.22l.18,0Z"/><path class="cls-2" d="M165.1,64.62c-.94,0-1.15.29-1.15,1.37v6.75c0,1.08.21,1.34,1.15,1.36v.35l-2,0-2,0V74.1c.92,0,1.15-.26,1.15-1.36V66c0-1.08-.23-1.35-1.15-1.37v-.35h4Z"/><path class="cls-2" d="M175.63,67.05h-.5c-.08-.92-.31-1.42-.76-1.71s-.55-.29-1.34-.29h-1.21v7.69c0,1.11.21,1.37,1.15,1.39v.33h-4v-.33c.93,0,1.14-.29,1.14-1.38V65.06h-1.56c-1.14,0-1.57.49-1.75,2h-.53l.14-2.83.23,0h6.21l1.42,0h1.28Z"/><path class="cls-2" d="M186.76,64.62c-.72.08-1,.32-1.52,1.28l-2.58,4.94v1.84c0,1.15.2,1.36,1.35,1.42v.35h-4.47V74.1c1.19,0,1.41-.23,1.41-1.43V70.83l-2.1-4.32c-.79-1.65-1-1.84-2-1.92v-.32H178c.55,0,1,0,1.27,0l1.94,0h.26v.35c-.9.08-1.13.21-1.13.69a1.57,1.57,0,0,0,.17.7l1.89,4,1.9-3.94a1.7,1.7,0,0,0,.2-.73c0-.44-.27-.66-.92-.7v-.36h3.12Z"/><path class="cls-2" d="M195.65,74.66c-3.39,0-5.94-2.29-5.94-5.35a5.6,5.6,0,0,1,11.19.1A5,5,0,0,1,195.65,74.66ZM195,64.54c-2,0-3.23,1.65-3.23,4.34,0,3.05,1.61,5.26,3.81,5.26,1.95,0,3.21-1.68,3.21-4.34v-.19C198.73,66.59,197.18,64.54,195,64.54Z"/><path class="cls-2" d="M208.85,64.56c0,.12,0,.26,0,.42,0,.34,0,.57,0,.71l.06.64,0,.35-.46,0a2.12,2.12,0,0,0-.49-1.22c-.49-.57-1.05-.74-2.58-.74h-1.13v4.17h1.13c1.53,0,1.82-.21,1.87-1.4h.46c0,.69-.05,1.27-.05,1.92,0,.34,0,.69,0,1.15v.28h-.46c-.08-1.1-.43-1.36-1.93-1.36h-1v3.21c0,1.11.23,1.37,1.21,1.37h.14v.35h-4.24V74.1c.92,0,1.15-.26,1.15-1.36V66c0-1.1-.21-1.38-1.15-1.39v-.35h.37l1.13,0,1.18,0h3.15c.72,0,.92,0,1.55,0Z"/><path class="cls-2" d="M102.61,89.5a8.71,8.71,0,0,1-5.29,1.78c-3.85,0-6.46-2.41-6.46-6S93.63,79,97.69,79a12.79,12.79,0,0,1,4.65.95v.26l0,.79v1.5l0,.37h-.4a4,4,0,0,0-4.14-3.32,4,4,0,0,0-4,2.62,6.87,6.87,0,0,0-.49,2.54c0,3.35,2,5.92,4.59,5.92A4.64,4.64,0,0,0,101.31,89a6.9,6.9,0,0,0,1.13-1.45h.12Z"/><path class="cls-2" d="M113.38,88.57c.7,1.62,1.05,2,2.19,2.1v.39l-.46,0h-4.56v-.42h.15c.65,0,1-.22,1-.69a1.65,1.65,0,0,0-.14-.58l-1-2.39H106.8L106,89.2a2.8,2.8,0,0,0-.2.74c0,.46.32.66,1,.68h.21v.43c-.6,0-.78,0-1.51,0h-2.49v-.42c1,0,1.6-.57,2.13-1.84l4-9.85ZM107,86.43h3.28l-1.74-4.25Z"/><path class="cls-2" d="M129.07,79.76h-.13c-1,0-1.34.41-1.34,1.58v10h-.42l-9.16-10,0,7.36c0,1.53.3,1.9,1.58,2V91h-3.73v-.43c1.2-.08,1.47-.46,1.47-1.94V81c0-.86-.38-1.21-1.32-1.25h-.12V79.3l.26,0h.65l.69,0,.67,0H119l7.85,8.7V81.42c0-1.29-.23-1.56-1.47-1.65v-.49h.28c.5,0,1.26.06,1.66.06l.73,0h1.05Z"/><path class="cls-2" d="M140.87,82.5h-.58a2.38,2.38,0,0,0-.86-2,2.21,2.21,0,0,0-1.56-.34h-1.39v8.88c0,1.29.25,1.58,1.31,1.61v.38h-4.64v-.39c1.08,0,1.31-.34,1.31-1.59V80.2h-1.8c-1.31,0-1.82.57-2,2.33H130l.16-3.26h9.07l1.18,0h.32Z"/><path class="cls-2" d="M150,79.43l.07.81c0,.44.09.88.18,1.51l0,.29-.56,0a2.77,2.77,0,0,0-.6-1.42c-.55-.62-1-.74-2.67-.74H145.2v4.75h1.2c1.57,0,1.88-.21,2-1.41V83H149v.18l0,.78c0,.23,0,.55,0,1s0,.65,0,.84l0,.87V87h-.58c0-1.34-.33-1.61-2-1.61h-1.15V89c0,1.2.28,1.45,1.64,1.45,2.42,0,3.19-.53,3.6-2.47l.57.1c-.09.71-.18,1.66-.24,2.65v.36c-.76,0-1.82,0-3.15,0l-3,0h-1.48l-1.22,0v-.42c1,0,1.31-.32,1.31-1.58v-7.8c0-1.27-.26-1.58-1.31-1.59v-.42h.37l.9,0h1.31l1.56,0,1.8,0,1.6,0H150Z"/><path class="cls-2" d="M152.91,79.27h1.51c.73,0,1.47,0,2.28,0,.57,0,1,0,1.38,0,2.13,0,3.53,1.22,3.53,3a3,3,0,0,1-1.5,2.61,4.88,4.88,0,0,1-.92.36,2.62,2.62,0,0,1,.62.82l.95,1.8c1.05,2,1.22,2.19,1.68,2.53a1.41,1.41,0,0,0,.6.26,2,2,0,0,0,.54,0v.41a7.08,7.08,0,0,1-1.13.09,3.53,3.53,0,0,1-2.64-1,12.86,12.86,0,0,1-2-3.37c-.48-1-.85-1.25-1.76-1.25H156v3.18c0,1.55.2,1.78,1.54,1.84V91l-1.61,0h-1.17c-.63,0-1.05,0-2.06,0v-.38c1.08,0,1.32-.32,1.32-1.58V81.26c0-1.27-.25-1.58-1.32-1.58v-.43ZM156,85l.51,0a5,5,0,0,0,1.8-.25,2,2,0,0,0,1.15-2,3.06,3.06,0,0,0-1.15-2.47,2.71,2.71,0,0,0-1.82-.46H156Z"/><path class="cls-2" d="M164.18,79.25c.15,0,.53,0,1.1,0h2.58c.34,0,.64,0,.91,0a5.34,5.34,0,0,1,1.94.24,2.81,2.81,0,0,1,2,2.63c0,1.47-1.18,2.54-3,2.74a5.15,5.15,0,0,1,1.6.35A2.86,2.86,0,0,1,173.21,88c0,2-1.5,3.07-4.2,3.07h-5.13v-.4c1.07,0,1.34-.32,1.34-1.58V81.24c0-1.27-.26-1.57-1.34-1.57v-.44Zm3,5.47a5.09,5.09,0,0,0,.78,0c1.27,0,1.75-.17,2.22-.81a2.49,2.49,0,0,0,.46-1.5,2.54,2.54,0,0,0-2-2.61,4.75,4.75,0,0,0-.92-.07h-.57Zm0,4.27c0,1.27.25,1.55,1.32,1.55,1.64,0,2.47-.74,2.47-2.24a2.87,2.87,0,0,0-2.19-3,7,7,0,0,0-1-.08,5.44,5.44,0,0,0-.57,0Z"/><path class="cls-2" d="M185.48,81.42l0,4.15c0,1.94-.12,2.56-.6,3.41a4.66,4.66,0,0,1-4.4,2.3c-2.5,0-4.44-1.32-4.95-3.37a8,8,0,0,1-.22-2.12v-4.3c0-1.38-.14-1.59-1.23-1.8a.71.71,0,0,1-.2,0v-.4h.34c.5,0,1,.06,1.5,0,.67,0,1.34,0,1.62,0l1,0,.41,0v.41c-1.13.12-1.36.4-1.36,1.73v4.82a4.89,4.89,0,0,0,.52,2.77,3.54,3.54,0,0,0,3.18,1.73,3.59,3.59,0,0,0,3.68-3,7.4,7.4,0,0,0,.07-1.15V86l-.11-4.51c0-1.5-.19-1.73-1.34-1.84l-.21,0v-.42l.19,0,.76,0H186l.7,0,.27,0v.42C185.84,79.73,185.5,80.13,185.48,81.42Z"/><path class="cls-2" d="M187.74,79.27h1.52c.72,0,1.47,0,2.28,0,.56,0,1,0,1.37,0,2.14,0,3.53,1.22,3.53,3a3,3,0,0,1-1.5,2.61,5.07,5.07,0,0,1-.91.36,2.44,2.44,0,0,1,.61.82l1,1.8c1.06,2,1.22,2.19,1.68,2.53a1.47,1.47,0,0,0,.6.26,2.05,2.05,0,0,0,.55,0v.41a7.08,7.08,0,0,1-1.13.09,3.54,3.54,0,0,1-2.65-1,13.24,13.24,0,0,1-2-3.37c-.48-1-.85-1.25-1.77-1.25h-.1v3.18c0,1.55.19,1.78,1.53,1.84V91l-1.6,0h-1.17c-.63,0-1.05,0-2.06,0v-.38c1.07,0,1.31-.32,1.31-1.58V81.26c0-1.27-.24-1.58-1.31-1.58v-.43ZM190.8,85l.51,0a5,5,0,0,0,1.8-.25,2.05,2.05,0,0,0,1.14-2,3.09,3.09,0,0,0-1.14-2.47,2.75,2.75,0,0,0-1.82-.46h-.49Z"/><path class="cls-2" d="M209,79.69c-.83.09-1.16.37-1.75,1.48l-3,5.7V89c0,1.31.23,1.57,1.55,1.64v.4h-5.15v-.39c1.38,0,1.63-.27,1.63-1.66V86.87l-2.42-5c-.92-1.91-1.15-2.12-2.26-2.23v-.39h.35l1,0c.64,0,1.13,0,1.47,0l2.24,0,.32,0v.41c-1.06.09-1.32.26-1.32.79a1.9,1.9,0,0,0,.2.81L204,85.93l2.19-4.56a1.92,1.92,0,0,0,.23-.84c0-.53-.32-.76-1.05-.81V79.3l.25,0,.63,0h1.87l.55,0h.3Z"/><path class="cls-2" d="M39,65.3c-2.33,0-2.94.89-3,2.9l-.14,11.52C35.76,85,33.57,90.23,25.68,90.23,19,90.23,14,87.36,14,79.68V68.2c0-2-.65-2.87-3-2.9V64.22c2.87.11,4.09.11,5.24.11s2.36,0,5.24-.11V65.3c-2.33,0-3,.89-3,2.9V80.58c0,5.38,3.42,8.29,7.43,8.29,6.24,0,8.46-4,8.46-10.26,0-2,0-3.46,0-5l-.11-5.21c0-2.15-.52-3.07-3.14-3.07V64.22c1.32,0,2.76.11,3.88.11s2.58-.07,4-.11Z"/><path class="cls-2" d="M63.78,72.18h-.93c-.79-5.16-5.17-7.06-9.46-7.06-4.77,0-9.4,3.76-9.4,10.72,0,6.75,3.87,12.88,10.08,12.88,2.69,0,6.89-1.58,10-6.46l0,4.23a17.81,17.81,0,0,1-11.14,3.74c-12.41,0-14.25-9.62-14.25-13.53,0-5.81,4.13-13,15.29-13a30.33,30.33,0,0,1,9.83,2Z"/><path class="cls-2" d="M82.85,66.73v0c0-.11-.18-.69.71-.81a2.07,2.07,0,0,1,.44-.58,2.82,2.82,0,0,1,.42.62.9.9,0,0,1,.74.81s-.45-.27-.56.07L84.65,68h1.08a.47.47,0,0,0,.14-.5s.71-.33.75.73a2.57,2.57,0,0,1,.62.36,1.29,1.29,0,0,1-.66.47s-.09.76-.75.72c0,0,.23-.42-.1-.55H84.6V70.3a.35.35,0,0,0,.47.15h0s.34.74-.63.74a2,2,0,0,1-.44.65,1.84,1.84,0,0,1-.45-.68s-.7-.06-.71-.71c0,0,.38.14.55-.13l0-1.13H82.26a.35.35,0,0,0-.14.48l0,0s-.73.24-.79-.7a1.84,1.84,0,0,1-.63-.44,2,2,0,0,1,.65-.43s.1-.74.76-.73c0,0-.24.44.09.55h1.14V66.84a.35.35,0,0,0-.48-.14Zm.78,0v1.54H82.09a.47.47,0,0,1-.28-.42.73.73,0,0,0-.23.57.81.81,0,0,0-.53.2.8.8,0,0,0,.51.21c0,.69.26.67.26.67-.09-.31.26-.53.26-.53h1.53v1.52a.67.67,0,0,1-.44.29c.07.19.57.26.57.26a.61.61,0,0,0,.26.53c.14-.09.19-.55.19-.55.54.12.66-.23.66-.23a.65.65,0,0,1-.53-.32V68.94h1.52c.24.07.31.46.31.46a1.13,1.13,0,0,0,.23-.64.66.66,0,0,0,.48-.18.64.64,0,0,0-.5-.23c.06-.56-.22-.69-.22-.69a.78.78,0,0,1-.26.56H84.3V66.66a.66.66,0,0,1,.48-.26,1.06,1.06,0,0,0-.62-.22.74.74,0,0,0-.16-.49.89.89,0,0,0-.23.51c-.51-.11-.66.19-.66.19a.6.6,0,0,1,.52.29Z"/><path class="cls-2" d="M66.43,66.73l1.19-1.19,1.8,1.79,1.79-1.79,1.25,1.24-2.22,2.11v2.92H68.55V68.9Zm2.35,2v2.74H70V68.77l2-2-.82-.87L69.4,67.69l-1.81-1.81-.81.84Z"/><path class="cls-2" d="M69.16,67.86h.46l-.1.41.31-.15v.52l-.26-.1v.77a.76.76,0,0,1-.16.26s-.1-.1-.15-.26v-.78l-.31.1V68.1l.31.16-.1-.41Z"/><path class="cls-2" d="M69.11,69.76h.53l-.11.36.31-.11v.47l-.31-.11v.83c0,.15-.1.2-.15.2a.37.37,0,0,1-.15-.2v-.83l-.27.11V70l.31.11-.15-.36Z"/><path class="cls-2" d="M67.26,66.78l.36-.36.21.31.1-.31.36.36-.31.1.62.62a.5.5,0,0,1,.1.31.51.51,0,0,1-.31-.11l-.61-.56-.11.26-.36-.35.31-.1-.36-.16Z"/><path class="cls-2" d="M71.16,66.37l.36.38-.31.2.31.1-.36.36L71,67.15l-.57.61a1,1,0,0,1-.3,0,.85.85,0,0,1,0-.26l.61-.61-.26-.16.32-.36.15.31.16-.36Z"/><path class="cls-2" d="M70.71,82.51c.15,0,.72.2.72.2s.45-.49.45-.49-.65-.24-.65-.24Z"/><polygon class="cls-2" points="83.07 82.88 82.86 83.1 83.07 83.31 83.28 83.1 83.07 82.88"/><polygon class="cls-2" points="81.64 82.07 81.42 82.28 81.21 82.07 81.42 81.86 81.64 82.07"/><path class="cls-2" d="M82.68,82.59l-.44.43-.42-.44.44-.43Zm-.44-.08-.08.07.08.08.08-.07Z"/><path class="cls-2" d="M73.42,79.16a.07.07,0,0,1,0-.07v0a.26.26,0,0,0,.06.28l.09-.09h0l.09-.09h0v0a.19.19,0,0,0-.09-.26h0l0,.12h0Z"/><path class="cls-2" d="M87.68,73.35C87.73,88.69,76.8,90.9,76.8,90.9S65.92,88.59,65.92,73.35V64.53H87.68ZM66.39,65v8a2.53,2.53,0,0,0,1.32.57s.46.15,1.21-.64a2.27,2.27,0,0,1,1.42-.79s.44-.13,1.49.64a2.6,2.6,0,0,0,1.64.79,2.39,2.39,0,0,0,1.64-.76,2.76,2.76,0,0,1,1.58-.69s.64-.12,1.64.71a2.7,2.7,0,0,0,1.65.74,2.19,2.19,0,0,0,1.57-.86A2.51,2.51,0,0,1,83.06,72a2.24,2.24,0,0,1,1.49.71s.84.91,1.5.83A1.45,1.45,0,0,0,87.19,73V65Zm10.28,8.65h-.23v2.26h.23Zm.48,0h-.23v2.26h.23Zm.23-.2a.59.59,0,0,0,.07-.29.65.65,0,1,0-1.29,0,.68.68,0,0,0,.07.28h.44a.32.32,0,0,1-.15-.43.33.33,0,0,1,.43-.15.32.32,0,0,1,.14.43.29.29,0,0,1-.14.15Zm-3,10.43v.87h5.19s.43,1.92,1.58,2.07V86s-.33.07-.56-.52l-.31-.88a5.84,5.84,0,0,0,2-1.15L81.51,83a5.7,5.7,0,0,1-1.42.76l-.3-1-.77.17.3.91Zm.87,1.08v.3H77v-.3Zm-.82,0v1.77h4s.21,0,.2-.2c0,0,0-.14-.16-.34l-1.17-1.24v.6H75V84.9Zm-.62,2v.29H80L77.85,84.9h-.16l1,1.14a.64.64,0,0,1,.12.61.47.47,0,0,1-.48.27ZM83,83.58c.63.28.81-.06.81-.06.24-.44-.29-.77-.29-.77l-2-1.17c-.57-.16-.72.18-.72.18a.56.56,0,0,0,.22.7Zm-8.79.91v-.67c-.72-.34-1.46-.65-2.22-.92,0,0,.31-.37.41-.47a13.16,13.16,0,0,1,2.2,1.23h.85a13.1,13.1,0,0,0-6-2.67s-.22-.06-.3.23a.27.27,0,0,0,.2.32,9.86,9.86,0,0,1,1.33.3l-.57.57s-.84-.15-1.28-.21a.31.31,0,0,0-.31.3h0s0,.26.17.32a13.52,13.52,0,0,1,5.56,1.67Zm-.79-6.79a.62.62,0,0,1,.65-.08.32.32,0,0,1,.31.08.6.6,0,0,1,.14-.53.32.32,0,0,0,.21.4h0c-.34.22,0,.39,0,.39-.37.22,0,.39,0,.39-.26.24.06.26.06.26a.55.55,0,0,0,.27.67.15.15,0,0,1-.13,0,5.39,5.39,0,0,1,0,1.7.33.33,0,0,1,0,.24c.08.21-.17.22-.17.22a1.19,1.19,0,0,1-.19.35l.09.12.21-.27,0,0-.15.31L75,82a.41.41,0,0,0,.26-.36c-.14-.42.1-.56.1-.56a5.24,5.24,0,0,1,.08-1.84c.39,0,.19-.5.19-.5.28-.15.06-.46.06-.46.24-.13.07-.46.07-.46.23-.17.09-.55.09-.55.27-.11.08-.44.08-.44.21-.14,0-.53,0-.53.19.07.26-.26.26-.26V73.5a.61.61,0,0,0-.44.27c-.4,0-.45.33-.45.33a.52.52,0,0,0-.49.41c-.37,0-.37.46-.37.46a.34.34,0,0,0-.27.39.49.49,0,0,0-.24.4c-.25.1-.25.45-.25.45-.3.08-.19.42-.19.42-.23.09-.14.44-.14.44a.59.59,0,0,0-.22.45,1.51,1.51,0,0,1,.26.18Zm-.32.52c.23.45.52.43.52.43a.61.61,0,0,0,.58-.22.47.47,0,0,0,0-.53c-.08-.16-.19,0-.19,0-.14.42-.31.4-.31.4-.24.1-.41-.31-.41-.31a.66.66,0,0,0-.63-.39,1.67,1.67,0,0,1,.4.58Zm0,.81a.49.49,0,0,1-.08.21.9.9,0,0,1,.45.51c.25.52.48.35.48.35l-.11-.16a.15.15,0,0,1,0-.2c.1-.08.21,0,.21,0-.22-.48.15-.59.15-.59a.9.9,0,0,0-.09-.46.92.92,0,0,1-.71.08.73.73,0,0,1-.3.22Zm.37-1.13.11.19s0,.12.16,0a.85.85,0,0,0,.15-.3s-.13-.09-.41.1Zm-.86.09a.65.65,0,0,0-.48-.17,3.87,3.87,0,0,1,.35.45.93.93,0,0,1,.14-.29Zm1.71,1.31-.11.08a.17.17,0,0,0,0,.23s.23.37,0,.53a2.48,2.48,0,0,1,0,1.15,1.32,1.32,0,0,0-.13.48l.12-.22h.07l0,.27.16,0a1.47,1.47,0,0,0,.14-.4s0-.22.11-.26a.24.24,0,0,1,0-.26,3,3,0,0,0,0-1.58.33.33,0,0,1-.32,0Zm0-.56a2.93,2.93,0,0,1,.05.29l0,.07h.09l0-.25ZM78.53,82l.42-.26,0,.06a1.74,1.74,0,0,0-.32.28s.07.06.5-.08a.48.48,0,0,0,.23-.17s.08,0,0-.18a.41.41,0,0,1-.07-.22.15.15,0,0,0,.17,0s0,0,.08-.1a.29.29,0,0,1,.11-.26,10.44,10.44,0,0,1,0-1.84s.07-.35-.21-.42c0,0,.33-.3.05-.42,0,0,.34-.32-.06-.45,0,0,.42-.3.14-.55a.36.36,0,0,0,0-.49s.1-.44-.17-.48c0,0,.22-.3,0-.38,0,0,.14-.42-.15-.55,0,0,.32,0,.39.45,0,0,.23.11.07.4a.45.45,0,0,1,.13.5.49.49,0,0,1,.06.52s.23.36-.09.55a.35.35,0,0,1,0,.43.31.31,0,0,1,0,.42.47.47,0,0,1,0,.4s.34.27.59.06a.47.47,0,0,0,.09-.48s.16-.16.07-.3a.21.21,0,0,0,0-.26.41.41,0,0,0-.07-.49.61.61,0,0,0-.1-.49.44.44,0,0,0-.15-.43s.09-.36-.13-.53a.49.49,0,0,0-.19-.42.55.55,0,0,0-.3-.49.47.47,0,0,0-.34-.4.43.43,0,0,0-.35-.32.29.29,0,0,0-.21-.3s0-.3-.48-.27a.41.41,0,0,0-.35-.27.36.36,0,0,0-.33-.12l-.12-.08V76s0,.08,0,.08,0,.37.22.47a.37.37,0,0,0,.08.42s-.07.36.14.49c0,0-.1.29.08.41a.47.47,0,0,0,.14.49s0,.3.25.34c0,0,.16.33.43.26,0,0,.3.21.07,2a.3.3,0,0,0-.16.36s-.16.1-.25.5h.06l.37-.33a.28.28,0,0,1,.08-.37,1.23,1.23,0,0,1,.12-.37,4.58,4.58,0,0,0,0-1.61.44.44,0,0,1-.07-.19.51.51,0,0,1-.27-.21.4.4,0,0,1-.35-.36c-.2-.09-.18-.36-.18-.36-.26-.15-.11-.5-.11-.5-.21-.11-.16-.51-.16-.51-.21-.13-.09-.42-.09-.42-.17-.08-.11-.36-.11-.36-.21-.23,0-.61,0-.61a.57.57,0,0,0,.26.56c-.11.19.09.37.09.37-.13.24.13.41.13.41a.48.48,0,0,0,.12.52c-.15.33.12.42.12.42-.1.24.19.36.19.36-.09.3.3.31.3.31-.07.18.26.36.26.36A.16.16,0,0,1,79,79a.43.43,0,0,0,.26.13,9.43,9.43,0,0,1,0,1.68s-.06.26-.08.31a.2.2,0,0,0,0,.11.25.25,0,0,1-.18.12.25.25,0,0,0-.12.2Zm-5.8-3.77.08.09c.07.17-.15.18-.15.18s-.1.14,0,.17h0a.14.14,0,0,1,.12.09c0,.09-.07.18-.07.18a.14.14,0,0,0,0,.18s.11,0,.11,0V78.9c0-.16.17-.14.17-.14a.31.31,0,0,0,.21-.05.92.92,0,0,1-.29-.3l-.16-.29Z"/><path class="cls-2" d="M74.22,66.48a1.82,1.82,0,0,0,1-.22,1.47,1.47,0,0,1,1.5,0,1.77,1.77,0,0,1,1.66,0,2.27,2.27,0,0,0,1.19.27v.06l.55.05v.45h.31v.82h-.31v.2h.31v.83h-.31v.36h.31v.8h-.31v.34h.31v.82h-.31v.26H77.2a1,1,0,0,1-.86,0H73.58v-.34l-.32,0,.13.08-.26.27-.44-.4h-.22s-.19-.11,0-.25l.21,0,.45-.39.3.26-.15,0v.09l.3,0V70l-.33,0,.14.09-.26.28-.47-.42h-.2s-.22-.14,0-.26l.2,0,.44-.4.3.26-.16.08.33,0v-.75l-.35-.05.18.1-.27.26-.44-.39h-.21s-.21-.11,0-.27h.21l.44-.42.29.26-.21.1.38,0v-.73h-.37l.17.07-.3.29-.39-.38h-.22s-.26-.08,0-.26l.13,0,.5-.43.28.26-.21.12.38,0v-.59l.64,0ZM73.88,71l.32-.31V66.91l-.33,0Zm2.39.18.3-.61a5.93,5.93,0,0,1-2.18.28l-.32.36Zm.49-.39-.25.5a.8.8,0,0,0,.53,0Zm.16-.24.35.66h2.4l-.36-.31a7.24,7.24,0,0,1-2-.27l-.43-.07Zm2.68.23.23.2v-4l-.23,0Zm-5.13-.18a6,6,0,0,0,1.11-.11l1-.19V66.76l.13-.16.13.16v3.53c.42,0,.82.13,1.23.22a4.59,4.59,0,0,0,1.23.11V66.81a3,3,0,0,1-1.08-.33,1.61,1.61,0,0,0-1.52.09,1.23,1.23,0,0,0-1.36-.08,2.17,2.17,0,0,1-.93.27Z"/></svg>